<svg width="22" height="22" viewBox="0 0 22 22" fill="none" xmlns="http://www.w3.org/2000/svg">
<path d="M7.75 10.75C7.75 11.3023 7.30228 11.75 6.75 11.75C6.19772 11.75 5.75 11.3023 5.75 10.75C5.75 10.1977 6.19772 9.75 6.75 9.75C7.30228 9.75 7.75 10.1977 7.75 10.75Z" fill="#9A9BB1"/>
<path d="M11.75 10.75C11.75 11.3023 11.3023 11.75 10.75 11.75C10.1977 11.75 9.75 11.3023 9.75 10.75C9.75 10.1977 10.1977 9.75 10.75 9.75C11.3023 9.75 11.75 10.1977 11.75 10.75Z" fill="#9A9BB1"/>
<path d="M15.75 10.75C15.75 11.3023 15.3023 11.75 14.75 11.75C14.1977 11.75 13.75 11.3023 13.75 10.75C13.75 10.1977 14.1977 9.75 14.75 9.75C15.3023 9.75 15.75 10.1977 15.75 10.75Z" fill="#9A9BB1"/>
<path fill-rule="evenodd" clip-rule="evenodd" d="M21.5 10.75C21.5 4.81294 16.6871 0 10.75 0C4.81294 0 0 4.81294 0 10.75C0 12.4683 0.403708 14.0945 1.12213 15.5369C1.22933 15.7521 1.25208 15.9719 1.2026 16.1568L0.606997 18.3828C0.199274 19.9066 1.59337 21.3007 3.1172 20.893L5.34324 20.2974C5.52814 20.2479 5.74791 20.2707 5.96315 20.3779C7.40553 21.0963 9.03169 21.5 10.75 21.5C16.6871 21.5 21.5 16.6871 21.5 10.75ZM10.75 1.5C15.8586 1.5 20 5.64137 20 10.75C20 15.8586 15.8586 20 10.75 20C9.26894 20 7.87121 19.6525 6.63191 19.0352C6.13451 18.7875 5.53973 18.6921 4.95553 18.8484L2.72949 19.444C2.32066 19.5534 1.94663 19.1793 2.05602 18.7705L2.65163 16.5445C2.80794 15.9603 2.71254 15.3655 2.4648 14.8681C1.84752 13.6288 1.5 12.2311 1.5 10.75C1.5 5.64137 5.64137 1.5 10.75 1.5Z" fill="#9A9BB1"/>
</svg>
